<svg xmlns="http://www.w3.org/2000/svg" xmlns:xlink="http://www.w3.org/1999/xlink" width="1000px" height="500px" viewBox="0 0 1000 500" zoomAndPan="disable" preserveAspectRatio="none">

    <style type="text/css"><![CDATA[
		line
		{
			stroke: rgba(155,255,255,0.15);
			stroke-width: 1px;
		}
    ]]></style>

	<!-- Old stuff
	<line x1="1100" y1="500" x2="-1000" y2="250" />
	<line x1="1100" y1="500" x2="-1000" y2="-100" />
	<line x1="1100" y1="500" x2="-1000" y2="-500" />
	<line x1="1100" y1="500" x2="-250" y2="-500" />
	<line x1="1100" y1="500" x2="300" y2="-500" />
	<line x1="1100" y1="500" x2="750" y2="-500" />

	<line x1="1750" y1="0" x2="750" y2="500" />
	<line x1="1500" y1="0" x2="500" y2="500" />
	<line x1="1150" y1="0" x2="150" y2="500" />
	<line x1="700" y1="0" x2="-300" y2="500" />
	<line x1="150" y1="0" x2="-850" y2="500" />
	-->

	<!-- Horizontal lines -->
	<line x1="1100" y1="250" x2="-1000" y2="250" />
	<line x1="1100" y1="251" x2="-1000" y2="251" />
	<line x1="1100" y1="252" x2="-1000" y2="252" />
	<line x1="1100" y1="254" x2="-1000" y2="254" />
	<line x1="1100" y1="256" x2="-1000" y2="256" />
	<line x1="1100" y1="260" x2="-1000" y2="260" />
	<line x1="1100" y1="265" x2="-1000" y2="265" />
	<line x1="1100" y1="273" x2="-1000" y2="273" />
	<line x1="1100" y1="285" x2="-1000" y2="285" />
	<line x1="1100" y1="303" x2="-1000" y2="303" />
	
	<line x1="1100" y1="329" x2="-1000" y2="329" />
	<line x1="1100" y1="329" x2="-1000" y2="329" />
	
	<line x1="1100" y1="369" x2="-1000" y2="369" />
	<line x1="1100" y1="369" x2="-1000" y2="369" />
	
	<line x1="1100" y1="427" x2="-1000" y2="427" />
	<line x1="1100" y1="427" x2="-1000" y2="427" />
	<line x1="1100" y1="427" x2="-1000" y2="427" />
	



	<!-- senkrechte Linien -->
	<line x1="-10" y1="250" x2="-218" y2="500" />

	<line x1="25" y1="250" x2="-146" y2="500" />
	<line x1="25" y1="250" x2="-146" y2="500" />
	
	<line x1="60" y1="250" x2="-66" y2="500" />
	<line x1="60" y1="250" x2="-66" y2="500" />
	<line x1="60" y1="250" x2="-66" y2="500" />

	<line x1="95" y1="250" x2="22" y2="500" />
	<line x1="95" y1="250" x2="22" y2="500" />
	<line x1="95" y1="250" x2="22" y2="500" />

	<line x1="130" y1="250" x2="110" y2="500" />
	<line x1="130" y1="250" x2="110" y2="500" />
	<line x1="130" y1="250" x2="110" y2="500" />
	<line x1="130" y1="250" x2="110" y2="500" />

	<line x1="165" y1="250" x2="200" y2="500" />
	<line x1="165" y1="250" x2="200" y2="500" />
	<line x1="165" y1="250" x2="200" y2="500" />

	<line x1="200" y1="250" x2="300" y2="500" />
	<line x1="200" y1="250" x2="300" y2="500" />
	<line x1="200" y1="250" x2="300" y2="500" />

	<line x1="235" y1="250" x2="410" y2="500" />
	<line x1="235" y1="250" x2="410" y2="500" />

	<line x1="270" y1="250" x2="531" y2="500" />
	<line x1="270" y1="250" x2="531" y2="500" />

	<line x1="304" y1="250" x2="664" y2="500" />
	<line x1="338" y1="250" x2="811" y2="500" />
	<line x1="372" y1="250" x2="972" y2="500" />
	<line x1="405" y1="250" x2="1149" y2="500" />
	<line x1="438" y1="250" x2="1344" y2="500" />
	<line x1="470" y1="250" x2="1558" y2="500" />
	<line x1="503" y1="250" x2="1794" y2="500" />
	<line x1="535" y1="250" x2="2053" y2="500" />
	<line x1="566" y1="250" x2="2338" y2="500" />
	<line x1="598" y1="250" x2="2652" y2="500" />
	<line x1="629" y1="250" x2="2997" y2="500" />
	<line x1="659" y1="250" x2="3377" y2="500" />
	<line x1="690" y1="250" x2="3795" y2="500" />
	<line x1="720" y1="250" x2="4254" y2="500" />
	<line x1="750" y1="250" x2="4760" y2="500" />
	<line x1="779" y1="250" x2="5316" y2="500" />
	<line x1="808" y1="250" x2="5927" y2="500" />
	<line x1="937" y1="250" x2="6600" y2="500" />

	



</svg>